<svg width="20" height="22" viewBox="0 0 20 22" fill="none" xmlns="http://www.w3.org/2000/svg">
<path d="M4.49339 22C3.34802 22 2.20264 21.5528 1.32159 20.6585C0.440529 19.7642 0 18.6016 0 17.439C0 16.187 0.440529 15.0244 1.32159 14.2195L14.2731 0.98374C14.8899 0.357724 15.7709 0 16.652 0C17.533 0 18.4141 0.357724 19.0308 0.98374C19.6476 1.60976 20 2.50407 20 3.39837C20 4.29268 19.6476 5.18699 19.0308 5.81301L7.84141 17.1707C6.96035 18.065 5.63877 18.065 4.75771 17.1707C3.87665 16.2764 3.87665 14.935 4.75771 14.0407L12.6872 5.99187C12.9515 5.72358 13.304 5.72358 13.5683 5.99187C13.8326 6.26016 13.8326 6.61789 13.5683 6.88618L5.63877 14.935C5.28634 15.2927 5.28634 15.9187 5.63877 16.3659C5.99119 16.7236 6.60793 16.7236 7.04846 16.3659L18.2379 4.9187C18.6784 4.47154 18.8546 3.93496 18.8546 3.39837C18.8546 2.77236 18.5903 2.23577 18.2379 1.87805C17.3568 0.98374 16.0352 0.98374 15.1542 1.87805L2.20264 15.0244C1.5859 15.6504 1.23348 16.5447 1.23348 17.439C1.23348 18.3333 1.5859 19.2276 2.20264 19.8537C3.52423 21.1951 5.63877 21.1951 6.96035 19.8537L16.652 10.0163C16.9163 9.74797 17.2687 9.74797 17.533 10.0163C17.7974 10.2846 17.7974 10.6423 17.533 10.9106L7.84141 20.748C6.87225 21.5528 5.72687 22 4.49339 22Z" fill="#5B73E8"/>
</svg>
