<svg width="17" height="15" viewBox="0 0 17 15" fill="none" xmlns="http://www.w3.org/2000/svg">
<path d="M16.5051 2.02161C16.504 2.02161 16.503 2.02148 16.502 2.02148H11.9863V1.52344C11.9863 0.699585 11.316 0.0292969 10.4922 0.0292969H6.50781C5.68396 0.0292969 5.01367 0.699585 5.01367 1.52344V2.02148H0.498047C0.220749 2.02148 0 2.24872 0 2.51953V13.4766C0 14.3004 0.670288 14.9707 1.49414 14.9707H15.5059C16.3297 14.9707 17 14.3004 17 13.4766V2.53004C17 2.52939 17 2.52874 17 2.52809C16.9809 2.20099 16.7798 2.02343 16.5051 2.02161ZM6.00977 1.52344C6.00977 1.24886 6.23324 1.02539 6.50781 1.02539H10.4922C10.7668 1.02539 10.9902 1.24886 10.9902 1.52344V2.02148H6.00977V1.52344ZM15.8109 3.01758L14.2642 7.65746C14.1964 7.86121 14.0065 7.99805 13.7919 7.99805H10.9902V7.5C10.9902 7.22491 10.7673 7.00195 10.4922 7.00195H6.50781C6.23272 7.00195 6.00977 7.22491 6.00977 7.5V7.99805H3.20812C2.99347 7.99805 2.80359 7.86121 2.73576 7.65746L1.18909 3.01758H15.8109ZM9.99414 7.99805V8.99414H7.00586V7.99805H9.99414ZM16.0039 13.4766C16.0039 13.7511 15.7804 13.9746 15.5059 13.9746H1.49414C1.21957 13.9746 0.996094 13.7511 0.996094 13.4766V5.58862L1.79076 7.9725C1.99439 8.58364 2.56403 8.99414 3.20812 8.99414H6.00977V9.49219C6.00977 9.76728 6.23272 9.99023 6.50781 9.99023H10.4922C10.7673 9.99023 10.9902 9.76728 10.9902 9.49219V8.99414H13.7919C14.436 8.99414 15.0056 8.58364 15.2092 7.9725L16.0039 5.58862V13.4766Z" fill="#5B73E8"/>
</svg>
