<svg width="17" height="18" viewBox="0 0 17 18" fill="none" xmlns="http://www.w3.org/2000/svg">
<path d="M16.4612 8.07099C16.1619 8.07099 15.8626 7.83873 15.8626 7.49035C15.8626 5.34196 15.0245 3.3097 13.4083 1.80002C13.1689 1.56777 13.1689 1.21938 13.4083 0.987121C13.6478 0.754863 14.0069 0.754863 14.2464 0.987121C16.0421 2.72906 16.9999 5.05164 16.9999 7.49035C16.9999 7.83873 16.7604 8.07099 16.4612 8.07099Z" fill="#626365"/>
<path d="M0.598592 8.07099C0.299296 8.07099 0 7.83873 0 7.49035C0 5.05164 0.957747 2.72906 2.75352 0.987121C2.99296 0.754863 3.35211 0.754863 3.59155 0.987121C3.83099 1.21938 3.83099 1.56777 3.59155 1.80002C2.03521 3.3097 1.13732 5.34196 1.13732 7.49035C1.13732 7.83873 0.897887 8.07099 0.598592 8.07099Z" fill="#626365"/>
<path d="M8.49995 18C6.88375 18 5.62671 16.7226 5.62671 15.2129C5.62671 14.9226 5.86615 14.6323 6.2253 14.6323C6.5246 14.6323 6.82389 14.8645 6.82389 15.2129C6.82389 16.1419 7.60206 16.8968 8.55981 16.8968C9.51755 16.8968 10.2957 16.1419 10.2957 15.2129C10.2957 14.9226 10.5352 14.6323 10.8943 14.6323C11.1936 14.6323 11.4929 14.8645 11.4929 15.2129C11.433 16.7806 10.1161 18 8.49995 18Z" fill="#626365"/>
<path d="M14.9048 15.7936H2.15484C1.43653 15.7936 0.778076 15.2129 0.778076 14.4581C0.778076 14.0516 0.957654 13.7032 1.25695 13.471C2.45413 12.4839 3.11258 11.0903 3.11258 9.63872V7.5484C3.11258 4.64517 5.56681 2.26453 8.55977 2.26453C11.5527 2.26453 14.007 4.64517 14.007 7.5484V9.63872C14.007 11.1484 14.6654 12.5419 15.8626 13.471C16.1619 13.7032 16.3415 14.1097 16.3415 14.4581C16.2816 15.1548 15.6231 15.7936 14.9048 15.7936ZM8.49991 3.36775C6.1654 3.36775 4.24991 5.22582 4.24991 7.49033V9.58065C4.24991 11.3807 3.41188 13.1226 1.97526 14.2839C1.97526 14.2839 1.9154 14.3419 1.9154 14.4C1.9154 14.5161 1.97526 14.5742 2.09498 14.5742H14.845C14.9647 14.5742 15.0246 14.5161 15.0246 14.4C15.0246 14.3419 14.9647 14.2839 14.9647 14.2839C13.5281 13.1226 12.69 11.3807 12.69 9.58065V7.49033C12.7499 5.22582 10.8344 3.36775 8.49991 3.36775Z" fill="#626365"/>
<path d="M8.49996 3.36774C8.20066 3.36774 7.90137 3.13548 7.90137 2.7871V0.580645C7.90137 0.290323 8.1408 0 8.49996 0C8.85911 0 9.09855 0.232258 9.09855 0.580645V2.84516C9.09855 3.13548 8.85911 3.36774 8.49996 3.36774Z" fill="#626365"/>
</svg>
