<svg width="19" height="17" viewBox="0 0 19 17" fill="none" xmlns="http://www.w3.org/2000/svg">
<path d="M18.4468 2.3771C18.4457 2.3771 18.4445 2.37695 18.4434 2.37695H13.3965V1.82031C13.3965 0.899536 12.6473 0.150391 11.7266 0.150391H7.27344C6.35266 0.150391 5.60352 0.899536 5.60352 1.82031V2.37695H0.556641C0.246719 2.37695 0 2.63092 0 2.93359V15.1797C0 16.1005 0.749146 16.8496 1.66992 16.8496H17.3301C18.2509 16.8496 19 16.1005 19 15.1797V2.94534C19 2.94461 19 2.94389 19 2.94316C18.9787 2.57758 18.7539 2.37913 18.4468 2.3771ZM6.7168 1.82031C6.7168 1.51344 6.96656 1.26367 7.27344 1.26367H11.7266C12.0334 1.26367 12.2832 1.51344 12.2832 1.82031V2.37695H6.7168V1.82031ZM17.671 3.49023L15.9424 8.67598C15.8666 8.90371 15.6544 9.05664 15.4145 9.05664H12.2832V8.5C12.2832 8.19254 12.034 7.94336 11.7266 7.94336H7.27344C6.96598 7.94336 6.7168 8.19254 6.7168 8.5V9.05664H3.58555C3.34564 9.05664 3.13342 8.90371 3.05761 8.67598L1.32898 3.49023H17.671ZM11.1699 9.05664V10.1699H7.83008V9.05664H11.1699ZM17.8867 15.1797C17.8867 15.4866 17.637 15.7363 17.3301 15.7363H1.66992C1.36304 15.7363 1.11328 15.4866 1.11328 15.1797V6.36375L2.00144 9.02808C2.22903 9.71113 2.86568 10.1699 3.58555 10.1699H6.7168V10.7266C6.7168 11.034 6.96598 11.2832 7.27344 11.2832H11.7266C12.034 11.2832 12.2832 11.034 12.2832 10.7266V10.1699H15.4145C16.1343 10.1699 16.771 9.71113 16.9986 9.02808L17.8867 6.36375V15.1797Z" fill="#626365"/>
</svg>
