<svg width="109" height="25" viewBox="0 0 109 25" fill="none" xmlns="http://www.w3.org/2000/svg">
<path d="M15.7276 3.14624C15.0548 3.14624 14.4661 3.74148 14.4661 4.42175C14.4661 5.10202 15.0548 5.69726 15.7276 5.69726C16.4005 5.69726 16.9892 5.10202 16.9892 4.42175C16.9892 3.74148 16.4005 3.14624 15.7276 3.14624Z" fill="#666A73"/>
<path d="M15.7276 6.88776C15.0548 6.88776 14.4661 7.48299 14.4661 8.16327C14.4661 8.84354 15.0548 9.43878 15.7276 9.43878C16.4005 9.43878 16.9892 8.84354 16.9892 8.16327C16.9892 7.39796 16.4005 6.88776 15.7276 6.88776Z" fill="#666A73"/>
<path d="M11.0178 7.31293C10.345 7.31293 9.75623 7.90817 9.75623 8.58844C9.75623 9.26871 10.345 9.86395 11.0178 9.86395C11.6906 9.86395 12.2794 9.26871 12.2794 8.58844C12.2794 7.90817 11.6906 7.31293 11.0178 7.31293Z" fill="#666A73"/>
<path d="M11.0178 11.0544C10.345 11.0544 9.75623 11.6497 9.75623 12.33C9.75623 13.0102 10.345 13.6055 11.0178 13.6055C11.6906 13.6055 12.2794 13.0102 12.2794 12.33C12.2794 11.5646 11.6906 11.0544 11.0178 11.0544Z" fill="#666A73"/>
<path d="M6.3079 19.3878C5.63506 19.3878 5.04633 19.983 5.04633 20.6633C5.04633 21.3435 5.63506 21.9388 6.3079 21.9388C6.98074 21.9388 7.56947 21.3435 7.56947 20.6633C7.56947 19.898 6.98074 19.3878 6.3079 19.3878Z" fill="#666A73"/>
<path d="M6.3079 15.6462C5.63506 15.6462 5.04633 16.2415 5.04633 16.9218C5.04633 17.602 5.63506 18.1973 6.3079 18.1973C6.98074 18.1973 7.56947 17.602 7.56947 16.9218C7.56947 16.2415 6.98074 15.6462 6.3079 15.6462Z" fill="#666A73"/>
<path d="M15.7276 10.7143C15.1389 10.7143 14.6343 11.2245 14.6343 11.8197V20.7483C14.6343 21.3435 15.0548 21.8538 15.6435 21.8538C15.8959 21.8538 16.2323 21.7687 16.4005 21.5136C16.5687 21.3435 16.7369 21.0034 16.7369 20.7483V11.8197C16.821 11.2245 16.3164 10.7143 15.7276 10.7143Z" fill="#666A73"/>
<path d="M20.4375 5.95239C19.8487 5.95239 19.3441 6.4626 19.3441 7.05783V18.0272C19.3441 18.6225 19.8487 19.1327 20.4375 19.1327C21.0262 19.1327 21.5308 18.6225 21.5308 18.0272V7.05783C21.4467 6.4626 21.0262 5.95239 20.4375 5.95239Z" fill="#666A73"/>
<path d="M11.0177 14.881C10.429 14.881 9.92438 15.3912 9.92438 15.9864V23.4694C9.92438 24.0647 10.3449 24.5749 10.9336 24.5749C11.186 24.5749 11.5224 24.4898 11.6906 24.2347C11.8588 23.9796 12.027 23.7245 12.027 23.4694V15.9864C12.1111 15.3912 11.6065 14.881 11.0177 14.881Z" fill="#666A73"/>
<path d="M6.30784 14.2857C6.89658 14.2857 7.40121 13.7755 7.40121 13.1803V4.33677C7.40121 3.74153 6.98068 3.23132 6.39195 3.23132C6.13963 3.23132 5.88732 3.31636 5.635 3.57146C5.38269 3.74153 5.29858 3.99663 5.29858 4.25173V13.1803C5.29858 13.7755 5.71911 14.2857 6.30784 14.2857Z" fill="#666A73"/>
<path d="M11.0177 5.95238C11.6065 5.95238 12.1111 5.44218 12.1111 4.84694V1.53061C12.1111 0.935375 11.6906 0.425171 11.1018 0.425171C10.8495 0.425171 10.5972 0.510205 10.3449 0.765307C10.1767 0.935375 10.0085 1.27551 10.0085 1.53061V4.84694C9.92437 5.44218 10.429 5.95238 11.0177 5.95238Z" fill="#666A73"/>
<path d="M1.598 5.95239C1.00927 5.95239 0.588745 6.4626 0.588745 7.05783V18.0272C0.588745 18.6225 1.09337 19.1327 1.68211 19.1327C2.27084 19.1327 2.77547 18.6225 2.77547 18.0272V7.05783C2.69137 6.4626 2.18674 5.95239 1.598 5.95239Z" fill="#666A73"/>
<path d="M68.5456 19.0476C66.6952 19.0476 65.2655 18.2823 64.2562 16.8367C63.4993 15.6463 63.0787 14.2007 63.0787 12.585C63.0787 10.6293 63.5834 9.01362 64.6767 7.73811C65.6019 6.54763 66.8635 5.95239 68.5456 5.95239C70.3959 5.95239 71.8256 6.7177 72.8349 8.24831C73.5918 9.43879 74.0124 10.8844 74.0124 12.585C74.0124 14.5408 73.5077 16.1565 72.4144 17.347C71.4051 18.5374 70.1435 19.0476 68.5456 19.0476ZM68.5456 17.517C69.8071 17.517 70.7323 17.0068 71.321 15.9864C71.8256 15.1361 72.078 14.0306 72.078 12.6701C72.078 11.0544 71.7415 9.77892 71.0687 8.92858C70.48 8.07824 69.6389 7.65307 68.5456 7.65307C67.3681 7.65307 66.4429 8.16328 65.7701 9.26872C65.2655 10.1191 65.0132 11.3095 65.0132 12.6701C65.0132 14.2857 65.3496 15.4762 66.0224 16.3265C66.6111 17.0919 67.4522 17.517 68.5456 17.517Z" fill="#666A73"/>
<path d="M36.9221 17.432H31.7075V13.0102H35.9969C36.4174 13.0102 36.7538 12.6701 36.7538 12.2449C36.7538 11.8197 36.4174 11.4796 35.9969 11.4796H35.9128H31.7075V7.56803H36.9221C37.3426 7.56803 37.679 7.22789 37.679 6.80272C37.679 6.37755 37.3426 6.03741 36.9221 6.03741H31.3711H29.8572V19.1327H31.3711H36.3333H36.9221C37.3426 19.1327 37.679 18.7925 37.679 18.3673C37.7631 17.8571 37.3426 17.432 36.9221 17.432Z" fill="#666A73"/>
<path d="M56.098 5.95239C55.0887 5.95239 53.9953 6.03743 52.8179 6.20749V12.3299V18.1123C52.8179 18.6225 53.2384 19.0476 53.743 19.0476C54.2477 19.0476 54.6682 18.6225 54.6682 18.1123V17.1769V14.0306C55.1728 14.1157 55.7615 14.2007 56.3503 14.2007C57.5278 14.2007 58.537 13.8606 59.3781 13.2653C60.3032 12.5 60.8078 11.3946 60.8078 9.94899C60.8078 7.31294 59.2098 5.95239 56.098 5.95239ZM56.3503 12.6701C55.7615 12.6701 55.1728 12.585 54.6682 12.5V12.3299V7.65307C55.0887 7.56804 55.5933 7.48301 56.1821 7.48301C57.9483 7.48301 58.7893 8.33335 58.7893 9.94899C58.7893 11.7347 57.9483 12.6701 56.3503 12.6701Z" fill="#666A73"/>
<path d="M86.544 6.9728C86.544 6.4626 86.1234 6.03743 85.6188 6.03743C85.1142 6.03743 84.6937 6.4626 84.6937 6.9728V8.50341V9.86396V12.7551V13.7755C84.6937 16.2415 83.7685 17.432 81.8341 17.432C79.9838 17.432 78.9745 16.2415 78.9745 13.7755V12.2449V6.88777C78.9745 6.37756 78.554 5.95239 78.0494 5.95239C77.5447 5.95239 77.1242 6.37756 77.1242 6.88777V12.7551V13.3504C77.1242 17.1769 78.7222 19.1327 81.9182 19.1327C85.1142 19.1327 86.7122 17.1769 86.7122 13.3504V12.7551V6.9728H86.544Z" fill="#666A73"/>
<path d="M107.738 17.432H102.524V13.0102H106.813C107.234 13.0102 107.57 12.6701 107.57 12.2449C107.57 11.8197 107.234 11.4796 106.813 11.4796H106.729H102.524V7.56803H107.738C108.159 7.56803 108.495 7.22789 108.495 6.80272C108.495 6.37755 108.159 6.03741 107.738 6.03741H102.187H100.674V19.1327H102.187H107.15H107.738C108.159 19.1327 108.495 18.7925 108.495 18.3673C108.579 17.8571 108.159 17.432 107.738 17.432Z" fill="#666A73"/>
<path d="M96.6366 12.9252C95.9637 12.2449 94.7863 11.6497 93.1883 10.9694C92.0949 10.5442 91.5062 9.949 91.5062 9.09866C91.5062 8.67349 91.6744 8.24832 92.0949 7.90819C92.5154 7.56805 93.0201 7.48302 93.6929 7.48302C94.6181 7.48302 95.5432 7.73812 96.3843 8.16329C96.7207 8.24832 97.0571 8.16329 97.2253 7.82315C97.3935 7.56805 97.3094 7.31295 97.2253 7.05785C97.2253 6.97281 97.1412 6.97281 97.1412 6.97281C97.1412 6.97281 97.0571 6.97281 97.0571 6.88778C96.0478 6.20751 94.8704 5.86737 93.6088 5.86737C93.2724 5.86737 92.936 5.86737 92.5995 5.9524C91.9267 6.03744 91.2539 6.29254 90.7492 6.71771C89.9923 7.31295 89.5718 8.16329 89.5718 9.1837C89.5718 10.034 89.9082 10.7993 90.4969 11.3946C91.1698 11.9898 92.179 12.5 93.6088 13.0102C94.9545 13.4354 95.6273 14.2007 95.6273 15.3061C95.6273 16.6667 94.7863 17.347 93.1883 17.347C92.2631 17.347 91.338 17.1769 90.581 16.7517L89.9082 16.3266C89.5718 16.1565 89.1512 16.2415 88.983 16.5817C88.8148 16.9218 88.8989 17.347 89.2353 17.517L89.3194 17.6021C90.7492 18.5374 92.0949 18.9626 93.3565 18.9626C93.5247 18.9626 93.6929 18.9626 93.8611 18.9626C94.7022 18.8776 95.4591 18.6225 96.1319 18.1973C97.0571 17.517 97.4776 16.5817 97.4776 15.3912C97.6458 14.4558 97.3094 13.6055 96.6366 12.9252Z" fill="#666A73"/>
<path d="M50.0424 18.6225L46.0054 12.33L49.2014 7.56805L49.9583 6.46261C49.8742 6.37757 49.8742 6.37757 49.7901 6.29254C49.2014 5.86737 48.3603 5.86737 47.9398 6.46261L44.9961 11.0544L42.1365 6.46261C42.0524 6.37757 42.0524 6.29254 41.9683 6.29254C41.3796 5.86737 40.5386 5.86737 40.118 6.46261L43.8186 12.33L39.5293 18.6225C39.6134 18.7075 39.6134 18.7075 39.6975 18.7925C40.2862 19.2177 41.1273 19.2177 41.5478 18.6225L44.912 13.4354L48.0239 18.6225C48.108 18.7075 48.108 18.7075 48.1921 18.7925C48.7808 19.2177 49.6219 19.1327 50.0424 18.6225Z" fill="#666A73"/>
</svg>
