<svg width="17" height="11" viewBox="0 0 17 11" fill="none" xmlns="http://www.w3.org/2000/svg">
<g clip-path="url(#clip0)">
<path d="M7.4014 7.06703C7.4014 6.4525 6.93882 5.96088 6.36058 5.96088H4.68371V3.8715C4.68371 3.31843 4.3946 2.82681 3.98984 2.581C4.27895 2.39664 4.45242 2.02792 4.45242 1.65921V1.04468C4.45242 0.430158 3.98984 -0.0614624 3.4116 -0.0614624H3.18031C2.60208 -0.0614624 2.1395 0.430158 2.1395 1.04468V1.65921C2.1395 2.02792 2.31297 2.33519 2.60208 2.581C2.1395 2.88826 1.9082 3.37988 1.9082 3.8715V6.63686C1.9082 7.43574 2.54426 8.11172 3.29596 8.11172H5.31977V9.89385C5.31977 10.5084 5.78235 11 6.36058 11C6.93882 11 7.4014 10.5084 7.4014 9.89385V7.06703C7.4014 7.12848 7.4014 7.12848 7.4014 7.06703Z" fill="white"/>
<path d="M3.87415 9.09496H3.12245C1.96599 9.09496 0.982993 8.05026 0.982993 6.82121V3.68714C0.982993 3.37987 0.751701 3.13406 0.462585 3.13406C0.173469 3.13406 0 3.44133 0 3.68714V6.75976C0 8.60334 1.38776 10.0782 3.12245 10.0782H3.81633C4.10544 10.0782 4.33673 9.83239 4.33673 9.52512C4.33673 9.21786 4.10544 9.09496 3.87415 9.09496Z" fill="white"/>
<path d="M14.4558 2.581C14.7449 2.39664 14.9184 2.02792 14.9184 1.65921V1.04468C14.9184 0.430158 14.4558 -0.0614624 13.8776 -0.0614624H13.5885C13.0102 -0.0614624 12.5477 0.430158 12.5477 1.04468V1.65921C12.5477 2.02792 12.7211 2.33519 13.0102 2.581C12.6055 2.82681 12.3164 3.31843 12.3164 3.8715V5.96088H10.6973C10.1191 5.96088 9.65649 6.4525 9.65649 7.06703V9.83239C9.65649 10.4469 10.1191 10.9385 10.6973 10.9385C11.2755 10.9385 11.7381 10.4469 11.7381 9.83239V8.05027H13.7619C14.5136 8.05027 15.1497 7.37429 15.1497 6.57541V3.8715C15.1497 3.37988 14.8606 2.88826 14.4558 2.581Z" fill="white"/>
<path d="M16.5374 3.19553C16.2482 3.19553 16.0169 3.44134 16.0169 3.7486V6.82122C16.0169 8.05027 15.034 9.09497 13.8775 9.09497H13.1836C12.8945 9.09497 12.6632 9.34078 12.6632 9.64804C12.6632 9.9553 12.8945 10.2011 13.1836 10.2011H13.8775C15.6122 10.2011 16.9999 8.72625 16.9999 6.88268V3.68715C16.9999 3.44134 16.7686 3.19553 16.5374 3.19553Z" fill="white"/>
</g>
<defs>
<clipPath id="clip0">
<rect width="17" height="11" fill="white"/>
</clipPath>
</defs>
</svg>
