<svg width="20" height="20" viewBox="0 0 20 20" fill="none" xmlns="http://www.w3.org/2000/svg">
<path d="M19.8235 0.175802C19.6471 -0.000668325 19.4118 -0.0594919 19.2353 0.0581552L0.411765 7.58757C0.176471 7.64639 0 7.88169 0 8.11698C0 8.35227 0.117647 8.58757 0.352941 8.64639L7.76471 12.2346L11.3529 19.6464C11.4706 19.8229 11.6471 19.9993 11.8824 19.9993C12.1176 19.9993 12.2941 19.8229 12.4118 19.6464L19.9412 0.822861C20.0588 0.587567 20 0.352273 19.8235 0.175802ZM2.05882 8.1758L17 2.1758L8.05882 11.117L2.05882 8.1758ZM11.8235 17.9993L8.88235 11.9405L17.8235 2.99933L11.8235 17.9993Z" fill="#626365"/>
</svg>
