<svg width="14" height="14" viewBox="0 0 14 14" fill="none" xmlns="http://www.w3.org/2000/svg">
<g clip-path="url(#clip0)">
<path d="M13.8765 0.124008C13.7529 0.000478217 13.5882 -0.0406983 13.4647 0.0416547L0.288235 5.31224C0.123529 5.35342 0 5.51813 0 5.68283C0 5.84754 0.082353 6.01224 0.247059 6.05342L5.4353 8.56518L7.94706 13.7534C8.02941 13.8769 8.15294 14.0005 8.31765 14.0005C8.48236 14.0005 8.60588 13.8769 8.68824 13.7534L13.9588 0.576949C14.0412 0.412243 14 0.247537 13.8765 0.124008ZM1.44118 5.72401L11.9 1.52401L5.64118 7.78283L1.44118 5.72401ZM8.27647 12.6005L6.21765 8.3593L12.4765 2.10048L8.27647 12.6005Z" fill="white"/>
</g>
<defs>
<clipPath id="clip0">
<rect width="14" height="14" fill="white"/>
</clipPath>
</defs>
</svg>
