<svg width="10" height="11" viewBox="0 0 10 11" fill="none" xmlns="http://www.w3.org/2000/svg">
<path d="M8.15217 7.315C7.6087 7.315 7.17391 7.535 6.79348 7.92L3.53261 6.05C3.58696 5.885 3.58696 5.72 3.58696 5.5C3.58696 5.335 3.53261 5.115 3.53261 4.95L6.79348 3.08C7.17391 3.465 7.6087 3.685 8.15217 3.685C9.13043 3.685 9.94565 2.86 9.94565 1.87C10 0.825 9.18478 0 8.15217 0C7.11957 0 6.3587 0.825 6.3587 1.815C6.3587 1.98 6.3587 2.09 6.41304 2.255L3.09783 4.18C2.77174 3.85 2.28261 3.685 1.79348 3.685C0.815217 3.685 0 4.51 0 5.5C0 6.49 0.815217 7.315 1.79348 7.315C2.28261 7.315 2.71739 7.095 3.04348 6.82L6.3587 8.745C6.30435 8.91 6.30435 9.02 6.30435 9.185C6.30435 10.175 7.11957 11 8.09783 11C9.07609 11 9.8913 10.175 9.8913 9.185C10 8.14 9.18478 7.315 8.15217 7.315Z" fill="white"/>
</svg>
