<svg width="27" height="27" viewBox="0 0 27 27" fill="none" xmlns="http://www.w3.org/2000/svg">
<path d="M13.5 0C6.03529 0 0 6.03529 0 13.5C0 16.7559 1.19118 19.7735 3.09706 22.0765C4.52647 23.7441 6.27353 25.0147 8.17941 25.8882H8.25882C8.41765 25.9676 8.57647 26.0471 8.73529 26.0471C8.81471 26.0471 8.89412 26.1265 8.89412 26.1265C9.05294 26.2059 9.13235 26.2059 9.29118 26.2853C9.37059 26.2853 9.45 26.3647 9.52941 26.3647C9.68824 26.3647 9.76765 26.4441 9.92647 26.4441C10.0059 26.4441 10.1647 26.5235 10.2441 26.5235C10.3235 26.5235 10.4824 26.6029 10.5618 26.6029C10.7206 26.6029 10.8 26.6823 10.9588 26.6823C11.0382 26.6823 11.1971 26.6824 11.2765 26.7618C11.4353 26.7618 11.5941 26.8412 11.6735 26.8412C11.7529 26.8412 11.8324 26.8412 11.9118 26.8412C12.0706 26.8412 12.2294 26.8412 12.3882 26.9206C12.4676 26.9206 12.5471 26.9206 12.6265 26.9206C12.8647 26.9206 13.1029 26.9206 13.3412 26.9206C13.5794 26.9206 13.8176 26.9206 14.0559 26.9206C14.1353 26.9206 14.2147 26.9206 14.2941 26.9206C14.4529 26.9206 14.6118 26.9206 14.7706 26.8412C14.85 26.8412 14.9294 26.8412 15.0088 26.8412C15.1676 26.8412 15.3265 26.8412 15.4059 26.7618C15.4853 26.7618 15.6441 26.7618 15.7235 26.6823C15.8824 26.6823 15.9618 26.6029 16.1206 26.6029C16.2 26.6029 16.3588 26.5235 16.4382 26.5235C16.5176 26.5235 16.6765 26.4441 16.7559 26.4441C16.9147 26.4441 16.9941 26.3647 17.1529 26.3647C17.2324 26.3647 17.3118 26.2853 17.3912 26.2853C17.55 26.2059 17.7088 26.2059 17.7882 26.1265C17.8676 26.1265 17.9471 26.0471 17.9471 26.0471C18.1059 25.9676 18.2647 25.8882 18.4235 25.8882H18.5029C20.4882 25.0941 22.2353 23.7441 23.5853 22.0765C25.8882 19.6941 27 16.7559 27 13.5C27 6.03529 20.9647 0 13.5 0ZM18.9794 24.7765C18.9794 24.7765 18.9794 24.8559 18.9794 24.7765C18.8206 24.8559 18.6618 24.9353 18.5029 25.0147C18.5029 25.0147 18.4235 25.0147 18.4235 25.0941C18.2647 25.1735 18.1059 25.1735 18.0265 25.2529C17.9471 25.2529 17.8676 25.3323 17.8676 25.3323C17.6294 25.4118 17.4706 25.4118 17.3912 25.4912C17.3118 25.4912 17.2324 25.5706 17.1529 25.5706C17.0735 25.5706 16.9147 25.65 16.8353 25.65C16.7559 25.65 16.5971 25.7294 16.5176 25.7294C16.4382 25.7294 16.2794 25.8088 16.2 25.8088C16.1206 25.8088 15.9618 25.8882 15.8824 25.8882C15.8029 25.8882 15.7235 25.8882 15.5647 25.9676C15.4059 25.9676 15.3265 25.9676 15.1676 26.0471C15.0882 26.0471 15.0088 26.0471 14.9294 26.0471C14.7706 26.0471 14.6118 26.0471 14.4529 26.0471C14.3735 26.0471 14.2941 26.0471 14.2147 26.0471C13.9765 26.0471 13.7382 26.0471 13.5794 26.0471C13.3412 26.0471 13.1029 26.0471 12.9441 26.0471C12.8647 26.0471 12.7853 26.0471 12.7059 26.0471C12.5471 26.0471 12.3882 26.0471 12.2294 26.0471C12.15 26.0471 12.0706 26.0471 11.9912 26.0471C11.8324 26.0471 11.7529 26.0471 11.5941 25.9676C11.5147 25.9676 11.4353 25.9676 11.2765 25.8882C11.1971 25.8882 11.0382 25.8088 10.9588 25.8088C10.8794 25.8088 10.7206 25.7294 10.6412 25.7294C10.5618 25.7294 10.4029 25.65 10.3235 25.65C10.2441 25.65 10.0853 25.5706 10.0059 25.5706C9.92647 25.5706 9.84706 25.4912 9.76765 25.4912C9.52941 25.4118 9.45 25.4118 9.29118 25.3323C9.21176 25.3323 9.13235 25.2529 9.13235 25.2529C8.97353 25.1735 8.81471 25.1735 8.73529 25.0941C8.73529 25.0941 8.65588 25.0941 8.65588 25.0147C8.49706 24.9353 8.33823 24.8559 8.17941 24.7765C6.59118 23.9824 5.24118 22.95 4.12941 21.6C5.00294 18.4235 7.46471 15.8029 10.6412 14.7706C10.7206 14.7706 10.8 14.85 10.8 14.85L10.8794 14.9294C11.0382 15.0088 11.1176 15.0882 11.2765 15.0882C11.3559 15.1676 11.5147 15.1676 11.5941 15.2471H11.6735C12.3088 15.4853 12.9441 15.5647 13.5794 15.5647C14.2941 15.5647 14.9294 15.4059 15.4853 15.2471H15.5647C15.6441 15.1676 15.8029 15.1676 15.8824 15.0882C16.0412 15.0088 16.1206 14.9294 16.2794 14.9294L16.3588 14.85C16.4382 14.85 16.5176 14.7706 16.5176 14.7706C19.6941 15.8029 22.1559 18.3441 23.0294 21.6C21.9176 22.95 20.5676 24.0618 18.9794 24.7765ZM8.57647 9.84706C8.57647 7.14706 10.8 4.92353 13.5 4.92353C16.2 4.92353 18.4235 7.14706 18.4235 9.84706C18.4235 11.5941 17.55 13.1029 16.2 13.9765C16.0412 14.0559 15.8029 14.2147 15.6441 14.2941H15.5647C14.2941 14.85 12.7059 14.85 11.4353 14.2941H11.3559C11.1971 14.2147 10.9588 14.1353 10.8 13.9765C9.45 13.1029 8.57647 11.5941 8.57647 9.84706ZM23.7441 20.8059C22.7118 17.7882 20.4088 15.4059 17.4706 14.2147C18.6618 13.1824 19.3765 11.5941 19.3765 9.84706C19.3765 6.59118 16.7559 3.97059 13.5 3.97059C10.2441 3.97059 7.62353 6.59118 7.62353 9.84706C7.62353 11.5941 8.33823 13.1029 9.52941 14.2147C6.59118 15.4059 4.20882 17.7882 3.25588 20.8059C1.74706 18.7412 0.873529 16.2 0.873529 13.5C0.952941 6.51176 6.59118 0.873529 13.5 0.873529C20.4088 0.873529 26.1265 6.51176 26.1265 13.5C26.1265 16.2 25.2529 18.7412 23.7441 20.8059Z" fill="#58595A"/>
</svg>
