<svg width="20" height="20" viewBox="0 0 20 20" fill="none" xmlns="http://www.w3.org/2000/svg">
<g clip-path="url(#clip0)">
<path d="M11.51 0.508392C11.4112 0.428079 11.281 0.397376 11.1567 0.425071L0.323378 2.92507C0.132714 2.9689 -0.00181737 3.13945 1.85627e-05 3.33507V17.5017C9.66877e-05 17.7073 0.150136 17.8822 0.353339 17.9134L11.1867 19.5801C11.4141 19.6151 11.6269 19.4591 11.6618 19.2316C11.665 19.2107 11.6667 19.1896 11.6667 19.1685V0.835071C11.667 0.708001 11.6094 0.587728 11.51 0.508392Z" fill="#5B73E8"/>
<path d="M19.5834 17.9184H11.2501C11.0199 17.9184 10.8334 17.7318 10.8334 17.5017C10.8334 17.2716 11.0199 17.085 11.2501 17.085H19.1667V2.9184H11.2501C11.0199 2.9184 10.8334 2.73184 10.8334 2.50172C10.8334 2.27161 11.0199 2.08508 11.2501 2.08508H19.5834C19.8135 2.08508 20.0001 2.27165 20.0001 2.50176V17.5018C20.0001 17.7319 19.8135 17.9184 19.5834 17.9184Z" fill="#5B73E8"/>
<path d="M7.0833 13.7517C6.89763 13.7515 6.73455 13.6284 6.6833 13.45L5.41662 9.01833L4.14994 13.45C4.05845 13.6711 3.80502 13.7763 3.58384 13.6848C3.47752 13.6408 3.39306 13.5563 3.34908 13.45L1.68244 7.61669C1.61267 7.39739 1.73392 7.16309 1.95322 7.09333C2.17252 7.02356 2.40681 7.14481 2.47658 7.36411C2.47904 7.37184 2.48127 7.37966 2.4833 7.38751L3.74994 11.8183L5.01662 7.38669C5.1081 7.16555 5.36154 7.06044 5.58271 7.15192C5.68904 7.1959 5.77349 7.28036 5.81748 7.38669L7.0833 11.8184L8.34998 7.38755C8.40994 7.16825 8.63634 7.03907 8.85564 7.09903C8.85877 7.09989 8.86185 7.10079 8.86498 7.10169C9.08607 7.16505 9.214 7.39555 9.1508 7.61669L7.48412 13.45C7.43279 13.6288 7.26924 13.7518 7.0833 13.7517Z" fill="#FAFAFA"/>
<path d="M17.9167 5.41838H11.2501C11.0199 5.41838 10.8334 5.23182 10.8334 5.0017C10.8334 4.77158 11.0199 4.58502 11.2501 4.58502H17.9167C18.1469 4.58502 18.3334 4.77158 18.3334 5.0017C18.3334 5.23186 18.1469 5.41838 17.9167 5.41838Z" fill="#5B73E8"/>
<path d="M17.9167 7.91838H11.2501C11.0199 7.91838 10.8334 7.73182 10.8334 7.5017C10.8334 7.27158 11.0199 7.08502 11.2501 7.08502H17.9167C18.1469 7.08502 18.3334 7.27158 18.3334 7.5017C18.3334 7.73182 18.1469 7.91838 17.9167 7.91838Z" fill="#5B73E8"/>
<path d="M17.9167 10.4184H11.2501C11.0199 10.4184 10.8334 10.2318 10.8334 10.0017C10.8334 9.77158 11.0199 9.58502 11.2501 9.58502H17.9167C18.1469 9.58502 18.3334 9.77158 18.3334 10.0017C18.3334 10.2319 18.1469 10.4184 17.9167 10.4184Z" fill="#5B73E8"/>
<path d="M17.9167 12.9184H11.2501C11.0199 12.9184 10.8334 12.7318 10.8334 12.5017C10.8334 12.2716 11.0199 12.085 11.2501 12.085H17.9167C18.1469 12.085 18.3334 12.2716 18.3334 12.5017C18.3334 12.7319 18.1469 12.9184 17.9167 12.9184Z" fill="#5B73E8"/>
<path d="M17.9167 15.4184H11.2501C11.0199 15.4184 10.8334 15.2318 10.8334 15.0017C10.8334 14.7716 11.0199 14.585 11.2501 14.585H17.9167C18.1469 14.585 18.3334 14.7716 18.3334 15.0017C18.3334 15.2319 18.1469 15.4184 17.9167 15.4184Z" fill="#5B73E8"/>
</g>
<defs>
<clipPath id="clip0">
<rect width="20" height="20" fill="white"/>
</clipPath>
</defs>
</svg>
